<svg width="20" height="26" viewBox="0 0 20 26" fill="none" xmlns="http://www.w3.org/2000/svg">
<path d="M14.9 24.4833L1.10002 14.5167C0.800023 14.3 0.588024 14.0653 0.464024 13.8125C0.340024 13.5597 0.277024 13.2889 0.275024 13C0.275024 12.7111 0.338024 12.4403 0.464024 12.1875C0.590024 11.9347 0.802023 11.7 1.10002 11.4833L14.9 1.51667C15.45 1.11945 16.15 0.920837 17 0.920837C17.85 0.920837 18.55 1.11945 19.1 1.51667C19.65 1.91389 19.925 2.41945 19.925 3.03334C19.925 3.64723 19.65 4.15278 19.1 4.55L7.40002 13L19.1 21.45C19.65 21.8472 19.925 22.3528 19.925 22.9667C19.925 23.5806 19.65 24.0861 19.1 24.4833C18.55 24.8806 17.85 25.0792 17 25.0792C16.15 25.0792 15.45 24.8806 14.9 24.4833Z" fill="#004643"/>
</svg>
