<svg width="16" height="10" viewBox="0 0 16 10" fill="none" xmlns="http://www.w3.org/2000/svg">
<path d="M4.81337 6.83844L13.0806 1.18286C13.3375 1.00712 13.6433 0.937658 13.9979 0.974467C14.3526 1.01128 14.631 1.14137 14.8331 1.36474C15.0352 1.58812 15.1151 1.854 15.0728 2.16241C15.0304 2.47081 14.8808 2.71289 14.6239 2.88863L5.37588 9.21521C5.09564 9.40692 4.78861 9.48546 4.45479 9.45081C4.12097 9.41617 3.84383 9.277 3.62335 9.03332L0.757096 5.86548C0.554988 5.6421 0.475102 5.37621 0.517434 5.06781C0.559767 4.7594 0.709378 4.51733 0.966268 4.34159C1.22316 4.16585 1.52894 4.09639 1.88362 4.1332C2.2383 4.17001 2.5167 4.3001 2.71881 4.52347L4.81337 6.83844Z" fill="white"/>
</svg>
