<svg width="94" height="108" viewBox="0 0 94 108" fill="none" xmlns="http://www.w3.org/2000/svg">
<path d="M6.71429 97.3572C6.71429 100.028 7.77538 102.59 9.66414 104.479C11.5529 106.368 14.1146 107.429 16.7857 107.429H77.2143C79.8854 107.429 82.4471 106.368 84.3359 104.479C86.2246 102.59 87.2857 100.028 87.2857 97.3572V26.8572H6.71429V97.3572ZM63.7857 43.6429C63.7857 42.7525 64.1394 41.8986 64.769 41.269C65.3986 40.6394 66.2525 40.2858 67.1429 40.2858C68.0332 40.2858 68.8871 40.6394 69.5167 41.269C70.1463 41.8986 70.5 42.7525 70.5 43.6429V90.6429C70.5 91.5333 70.1463 92.3872 69.5167 93.0168C68.8871 93.6463 68.0332 94 67.1429 94C66.2525 94 65.3986 93.6463 64.769 93.0168C64.1394 92.3872 63.7857 91.5333 63.7857 90.6429V43.6429ZM43.6429 43.6429C43.6429 42.7525 43.9966 41.8986 44.6261 41.269C45.2557 40.6394 46.1096 40.2858 47 40.2858C47.8904 40.2858 48.7443 40.6394 49.3739 41.269C50.0034 41.8986 50.3571 42.7525 50.3571 43.6429V90.6429C50.3571 91.5333 50.0034 92.3872 49.3739 93.0168C48.7443 93.6463 47.8904 94 47 94C46.1096 94 45.2557 93.6463 44.6261 93.0168C43.9966 92.3872 43.6429 91.5333 43.6429 90.6429V43.6429ZM23.5 43.6429C23.5 42.7525 23.8537 41.8986 24.4833 41.269C25.1129 40.6394 25.9668 40.2858 26.8571 40.2858C27.7475 40.2858 28.6014 40.6394 29.231 41.269C29.8606 41.8986 30.2143 42.7525 30.2143 43.6429V90.6429C30.2143 91.5333 29.8606 92.3872 29.231 93.0168C28.6014 93.6463 27.7475 94 26.8571 94C25.9668 94 25.1129 93.6463 24.4833 93.0168C23.8537 92.3872 23.5 91.5333 23.5 90.6429V43.6429ZM90.6429 6.71432H65.4643L63.492 2.79066C63.0742 1.95183 62.4306 1.24621 61.6336 0.753209C60.8367 0.260203 59.9179 -0.000635332 58.9808 3.67874e-05H34.9982C34.0632 -0.00355757 33.1461 0.256309 32.352 0.749862C31.5578 1.24342 30.9188 1.95069 30.508 2.79066L28.5357 6.71432H3.35714C2.46677 6.71432 1.61287 7.06802 0.983284 7.69761C0.353698 8.32719 0 9.1811 0 10.0715L0 16.7858C0 17.6761 0.353698 18.53 0.983284 19.1596C1.61287 19.7892 2.46677 20.1429 3.35714 20.1429H90.6429C91.5332 20.1429 92.3871 19.7892 93.0167 19.1596C93.6463 18.53 94 17.6761 94 16.7858V10.0715C94 9.1811 93.6463 8.32719 93.0167 7.69761C92.3871 7.06802 91.5332 6.71432 90.6429 6.71432Z" fill="black"/>
</svg>
