<svg width="102" height="102" viewBox="0 0 102 102" fill="none" xmlns="http://www.w3.org/2000/svg">
<path d="M50.9578 0C22.8077 0 0 22.8077 0 50.9578C0 79.1078 22.8077 101.916 50.9578 101.916C79.1078 101.916 101.916 79.1078 101.916 50.9578C101.916 22.8077 79.1078 0 50.9578 0ZM50.9578 92.0527C28.2528 92.0527 9.86279 73.6627 9.86279 50.9578C9.86279 28.2528 28.2528 9.86279 50.9578 9.86279C73.6627 9.86279 92.0527 28.2528 92.0527 50.9578C92.0527 73.6627 73.6627 92.0527 50.9578 92.0527ZM71.8751 38.1772L59.0946 50.9578L71.8751 63.7383C72.8408 64.704 72.8408 66.2656 71.8751 67.2314L67.2314 71.8751C66.2656 72.8408 64.704 72.8408 63.7383 71.8751L50.9578 59.0946L38.1772 71.8751C37.2115 72.8408 35.6499 72.8408 34.6842 71.8751L30.0404 67.2314C29.0747 66.2656 29.0747 64.704 30.0404 63.7383L42.821 50.9578L30.0404 38.1772C29.0747 37.2115 29.0747 35.6499 30.0404 34.6842L34.6842 30.0404C35.6499 29.0747 37.2115 29.0747 38.1772 30.0404L50.9578 42.821L63.7383 30.0404C64.704 29.0747 66.2656 29.0747 67.2314 30.0404L71.8751 34.6842C72.8408 35.6499 72.8408 37.2115 71.8751 38.1772Z" fill="black"/>
</svg>
